<svg xmlns="http://www.w3.org/2000/svg" viewBox="0 0 800 600" width="800" height="600">
  <style>
    .corridor { fill: #e8e8e8; stroke: #999; stroke-width: 1; }
    .room { fill: #f5f5f5; stroke: #666; stroke-width: 1; }
    .room-label { font-family: sans-serif; font-size: 9px; fill: #333; text-anchor: middle; }
    .room-name { font-family: sans-serif; font-size: 7px; fill: #666; text-anchor: middle; }
    .corridor-label { font-family: sans-serif; font-size: 10px; fill: #888; text-anchor: middle; }
    .intersection { fill: #ddd; stroke: #999; stroke-width: 1; }
    .stairs { fill: #ffd700; stroke: #b8860b; stroke-width: 1; }
    .wp-marker { fill: #3498db; stroke: white; stroke-width: 2; }
    .start-marker { fill: #e74c3c; stroke: white; stroke-width: 2; }
  </style>

  <!-- Background -->
  <rect width="800" height="600" fill="white"/>

  <!-- ====== CORRIDORS ====== -->
  <!-- South corridor (horizontal) -->
  <rect class="corridor" x="150" y="420" width="500" height="40"/>
  <!-- West corridor (vertical) -->
  <rect class="corridor" x="150" y="130" width="40" height="330"/>
  <!-- North corridor (horizontal) -->
  <rect class="corridor" x="150" y="130" width="500" height="40"/>
  <!-- East corridor (vertical) -->
  <rect class="corridor" x="610" y="130" width="40" height="330"/>

  <!-- ====== INTERSECTIONS ====== -->
  <!-- SW intersection -->
  <rect class="intersection" x="150" y="420" width="40" height="40"/>
  <text class="corridor-label" x="170" y="445">SW</text>
  <!-- NW intersection -->
  <rect class="intersection" x="150" y="130" width="40" height="40"/>
  <text class="corridor-label" x="170" y="155">NW</text>
  <!-- NE intersection -->
  <rect class="intersection" x="610" y="130" width="40" height="40"/>
  <text class="corridor-label" x="630" y="155">NE</text>
  <!-- SE intersection -->
  <rect class="intersection" x="610" y="420" width="40" height="40"/>
  <text class="corridor-label" x="630" y="445">SE</text>

  <!-- ====== STAIRS (Start Point) ====== -->
  <rect class="stairs" x="370" y="465" width="60" height="35"/>
  <text class="room-label" x="400" y="485">계단</text>
  <circle class="start-marker" cx="400" cy="450" r="6"/>
  <text style="font-family:sans-serif;font-size:8px;fill:#e74c3c;text-anchor:middle" x="400" y="510">시작점</text>

  <!-- ====== SOUTH CORRIDOR ROOMS ====== -->
  <!-- B123 (south, west side) -->
  <rect class="room" x="220" y="462" width="60" height="45"/>
  <text class="room-label" x="250" y="485">B123</text>
  <text class="room-name" x="250" y="497">강의실</text>

  <!-- B121 (south, east side) -->
  <rect class="room" x="520" y="462" width="60" height="45"/>
  <text class="room-label" x="550" y="485">B121</text>
  <text class="room-name" x="550" y="497">PC실습실</text>

  <!-- ====== WEST CORRIDOR ROOMS (bottom to top) ====== -->
  <!-- B125 -->
  <rect class="room" x="55" y="375" width="93" height="42"/>
  <text class="room-label" x="101" y="397">B125</text>
  <text class="room-name" x="101" y="409">대강의실</text>

  <!-- B127 -->
  <rect class="room" x="55" y="420" width="93" height="42"/>
  <text class="room-label" x="101" y="442">B127</text>
  <text class="room-name" x="101" y="454">시청각실</text>

  <!-- B128 -->
  <rect class="room" x="55" y="330" width="93" height="42"/>
  <text class="room-label" x="101" y="352">B128</text>
  <text class="room-name" x="101" y="364">학생상담실</text>

  <!-- B129 -->
  <rect class="room" x="55" y="285" width="93" height="42"/>
  <text class="room-label" x="101" y="307">B129</text>
  <text class="room-name" x="101" y="319">대학원강의실</text>

  <!-- B130 -->
  <rect class="room" x="55" y="240" width="93" height="42"/>
  <text class="room-label" x="101" y="262">B130</text>
  <text class="room-name" x="101" y="274">대학원강의실</text>

  <!-- B131 -->
  <rect class="room" x="55" y="195" width="93" height="42"/>
  <text class="room-label" x="101" y="217">B131</text>
  <text class="room-name" x="101" y="229">강의실</text>

  <!-- ====== NORTH CORRIDOR ROOMS (left to right) ====== -->
  <!-- B132 -->
  <rect class="room" x="220" y="85" width="80" height="42"/>
  <text class="room-label" x="260" y="107">B132</text>
  <text class="room-name" x="260" y="119">강의실</text>

  <!-- B133 -->
  <rect class="room" x="320" y="85" width="80" height="42"/>
  <text class="room-label" x="360" y="107">B133</text>
  <text class="room-name" x="360" y="119">세미나실</text>

  <!-- B134 -->
  <rect class="room" x="420" y="85" width="80" height="42"/>
  <text class="room-label" x="460" y="107">B134</text>
  <text class="room-name" x="460" y="119">강의실</text>

  <!-- ====== EAST CORRIDOR ROOMS (bottom to top) ====== -->
  <!-- B116 -->
  <rect class="room" x="652" y="375" width="93" height="42"/>
  <text class="room-label" x="698" y="397">B116</text>
  <text class="room-name" x="698" y="409">(확인필요)</text>

  <!-- B110 -->
  <rect class="room" x="652" y="310" width="93" height="42"/>
  <text class="room-label" x="698" y="332">B110</text>
  <text class="room-name" x="698" y="344">(확인필요)</text>

  <!-- B107 -->
  <rect class="room" x="652" y="260" width="93" height="42"/>
  <text class="room-label" x="698" y="282">B107</text>
  <text class="room-name" x="698" y="294">전산지능연구실</text>

  <!-- B106 -->
  <rect class="room" x="652" y="218" width="93" height="42"/>
  <text class="room-label" x="698" y="240">B106</text>
  <text class="room-name" x="698" y="252">지능공학연구실</text>

  <!-- B105 -->
  <rect class="room" x="652" y="195" width="93" height="20"/>
  <text class="room-label" x="698" y="209">B105 교수실</text>

  <!-- B104 -->
  <rect class="room" x="652" y="173" width="93" height="20"/>
  <text class="room-label" x="698" y="187">B104 교수실</text>

  <!-- B102 -->
  <rect class="room" x="520" y="85" width="80" height="42"/>
  <text class="room-label" x="560" y="107">B102</text>
  <text class="room-name" x="560" y="119">네트워크연구실</text>

  <!-- B101 -->
  <rect class="room" x="652" y="130" width="93" height="40"/>
  <text class="room-label" x="698" y="152">B101</text>
  <text class="room-name" x="698" y="164">이재민 교수실</text>

  <!-- ====== ROUTE A PATH (blue dashed) ====== -->
  <path d="M400,450 L250,440 L170,440 L170,350 L170,250 L170,150 L260,150 L360,150"
        fill="none" stroke="#3498db" stroke-width="3" stroke-dasharray="8,4" opacity="0.6"/>
  <text style="font-family:sans-serif;font-size:11px;fill:#3498db;font-weight:bold" x="30" y="290">Route A</text>

  <!-- ====== ROUTE B PATH (orange dashed) ====== -->
  <path d="M400,450 L550,440 L630,440 L630,350 L630,250 L630,150 L560,150 L460,150"
        fill="none" stroke="#e67e22" stroke-width="3" stroke-dasharray="8,4" opacity="0.6"/>
  <text style="font-family:sans-serif;font-size:11px;fill:#e67e22;font-weight:bold" x="720" y="290">Route B</text>

  <!-- ====== LEGEND ====== -->
  <rect x="20" y="530" width="760" height="55" fill="#f9f9f9" stroke="#ddd" rx="5"/>
  <circle cx="50" cy="555" r="5" fill="#e74c3c"/>
  <text style="font-family:sans-serif;font-size:10px;fill:#333" x="60" y="559">시작점</text>
  <line x1="110" y1="555" x2="140" y2="555" stroke="#3498db" stroke-width="3" stroke-dasharray="8,4"/>
  <text style="font-family:sans-serif;font-size:10px;fill:#333" x="145" y="559">Route A</text>
  <line x1="210" y1="555" x2="240" y2="555" stroke="#e67e22" stroke-width="3" stroke-dasharray="8,4"/>
  <text style="font-family:sans-serif;font-size:10px;fill:#333" x="245" y="559">Route B</text>
  <rect x="310" y="548" width="15" height="15" fill="#ffd700" stroke="#b8860b"/>
  <text style="font-family:sans-serif;font-size:10px;fill:#333" x="330" y="559">계단</text>
  <rect x="380" y="548" width="15" height="15" fill="#f5f5f5" stroke="#666"/>
  <text style="font-family:sans-serif;font-size:10px;fill:#333" x="400" y="559">실</text>
  <rect x="430" y="548" width="15" height="15" fill="#e8e8e8" stroke="#999"/>
  <text style="font-family:sans-serif;font-size:10px;fill:#333" x="450" y="559">복도</text>

  <!-- Title -->
  <text style="font-family:sans-serif;font-size:14px;fill:#222;font-weight:bold;text-anchor:middle" x="400" y="30">KIT 디지털관 지하1층 평면도</text>
</svg>
